<svg xmlns="http://www.w3.org/2000/svg" width="512" height="512" viewBox="0 0 512 512">
  <defs>
    <linearGradient id="purpleGrad" x1="0%" y1="0%" x2="100%" y2="100%">
      <stop offset="0%" style="stop-color:#863bff"/>
      <stop offset="100%" style="stop-color:#7e14ff"/>
    </linearGradient>
  </defs>
  
  <!-- Dark background -->
  <rect width="512" height="512" rx="64" fill="#0a0a0f"/>
  
  <!-- Casting waves - right side arcs -->
  <g fill="none" stroke="url(#purpleGrad)" stroke-width="10" stroke-linecap="round">
    <path d="M 360 200 A 90 90 0 0 1 360 312"/>
    <path d="M 390 170 A 130 130 0 0 1 390 342"/>
    <path d="M 420 140 A 170 170 0 0 1 420 372"/>
    <path d="M 450 110 A 210 210 0 0 1 450 402"/>
  </g>
  
  <!-- Shost S -->
  <path fill="url(#purpleGrad)" d="
    M 95 380
    c -10 12 -30 5 -30 -10 V 260
    a 28 28 0 0 0 -28 -28 H 15
    c -14 0 -22 -16 -14 -27 l 110 -155
    c 16 -22 0 -54 -28 -54 H -50
    c -14 0 -22 -16 -14 -27 l 20 -28
    c 3 -4.5 8.5 -7 14 -7 h 370
    c 14 0 22 16 14 27 l -110 155
    c -16 22 0 54 28 54 h 175
    c 14 0 22 16 14 27 L 340 480
  "/>
  
  <!-- Highlight on S -->
  <path fill="#ede6ff" opacity="0.12" d="
    M 80 330
    c 0 -50 -40 -90 -90 -90
    H -10
    c -14 0 -22 -16 -14 -27 l 110 -155
    c 8 -11 2 -26 -10 -26
    H -60
    c -14 0 -22 -16 -14 -27 l 20 -28
    c 3 -4.5 8.5 -7 14 -7
    h 250
  "/>
</svg>
